<?xml version="1.0" encoding="utf-8"?>
<!-- Generator: Adobe Illustrator 21.0.0, SVG Export Plug-In . SVG Version: 6.00 Build 0)  -->
<svg version="1.1" id="图层_1" xmlns="http://www.w3.org/2000/svg" xmlns:xlink="http://www.w3.org/1999/xlink" x="0px" y="0px"
	 viewBox="0 0 56 94" style="enable-background:new 0 0 56 94;" xml:space="preserve">
<style type="text/css">
	.st0{fill:#595757;}
	.st1{fill:#F7B400;}
</style>
<g>
	<g>
		<path class="st0" d="M1.7,71.7c0-0.1,0-0.3-0.1-0.4C1.7,71.4,1.7,71.6,1.7,71.7z"/>
		<path class="st0" d="M6.7,69.4c0,0.3,0,0.6,0.1,0.9C6.7,70,6.7,69.7,6.7,69.4z"/>
		<path class="st0" d="M1.5,68.8c0-0.1,0-0.2,0-0.3c0,0.3,0,0.6,0,0.9c0-0.1,0-0.3,0-0.4C1.5,69,1.5,68.9,1.5,68.8z"/>
		<path class="st0" d="M1.6,70.8c0-0.3-0.1-0.6-0.1-0.9C1.6,70.2,1.6,70.5,1.6,70.8z"/>
		<path class="st0" d="M1.5,69.1c0-0.1,0-0.1,0-0.2C1.5,68.9,1.5,69,1.5,69.1z"/>
		<path class="st0" d="M1.7,71.3c0-0.2,0-0.4-0.1-0.5C1.6,70.9,1.6,71.1,1.7,71.3z"/>
		<path class="st0" d="M1.5,69.9c0-0.1,0-0.2,0-0.4C1.5,69.6,1.5,69.7,1.5,69.9z"/>
		<path class="st0" d="M1.9,72.8c-0.1-0.4-0.1-0.7-0.2-1.1C1.8,72.1,1.8,72.4,1.9,72.8z"/>
		<path class="st0" d="M1.5,68.2v0.2c0,0,0,0.1,0,0.1c0,0.1,0,0.2,0,0.3C1.5,68.6,1.5,68.4,1.5,68.2z"/>
		<path class="st0" d="M6.7,36.7c-3.2,4.2-5.1,9.5-5.2,15.2c0,0,0,0,0,0.1v16.6c0,0,0,0.1,0,0.1c0,0,0-0.1,0-0.1v-0.2
			c0,0.2,0,0.4,0,0.6c0,0.1,0,0.1,0,0.2c0,0.1,0,0.3,0,0.4c0,0.1,0,0.2,0,0.4c0,0.3,0,0.6,0.1,0.9c0,0.2,0,0.4,0.1,0.5
			c0,0.1,0,0.3,0.1,0.4c0,0.4,0.1,0.7,0.2,1.1c0,0,0,0.1,0,0.1c0.1,0.5,0.2,0.9,0.3,1.4c2.1-1,3.6-2,4.6-3.6c0-0.1,0-0.3,0-0.4
			c0-0.3,0-0.6-0.1-0.9c0-0.3,0-0.6,0-0.9V51.7c0-10.7,8.6-19.5,19.3-19.7v-5.2C18.1,26.9,11.1,30.8,6.7,36.7z"/>
	</g>
	<path class="st0" d="M26,0.7h-0.2v0C12.4,1,1.5,12,1.5,25.6v17.1c1.1-3.3,2.9-6.2,5.2-8.8v-8.3c0-10.7,8.6-19.5,19.3-19.7v0H26V0.7
		z"/>
	<path class="st1" d="M29.6,0.7H28v0h-0.1v5.2h0.2v0h1.5c10.9,0,19.7,8.9,19.7,19.7v10.8l0,15.3v16.8c0,10.9-8.9,19.7-19.7,19.7
		h-3.2c-1.2,0-2.4-0.1-3.6-0.3C15.1,86.4,9,80.6,7.2,73l0,0c0,0,0,0,0,0c-1.1,1.3-2.6,2.2-4.5,3l0,0l0,0C6,86,15.4,93.3,26.4,93.3
		h3.2c13.7,0,24.9-11.2,24.9-24.9V25.6C54.5,11.8,43.3,0.7,29.6,0.7z"/>
</g>
</svg>
