<?xml version="1.0" encoding="utf-8"?>
<!-- Generator: Adobe Illustrator 21.0.0, SVG Export Plug-In . SVG Version: 6.00 Build 0)  -->
<svg version="1.1" id="图层_1" xmlns="http://www.w3.org/2000/svg" xmlns:xlink="http://www.w3.org/1999/xlink" x="0px" y="0px"
	 viewBox="0 0 282 94" style="enable-background:new 0 0 282 94;" xml:space="preserve">
<style type="text/css">
	.st0{fill:#595757;}
	.st1{fill:#F7B400;}
	.st2{fill:#9E9E9F;}
</style>
<g>
	<g>
		<g>
			<path class="st0" d="M1.2,71.7c0-0.1,0-0.3-0.1-0.4C1.2,71.4,1.2,71.6,1.2,71.7z"/>
			<path class="st0" d="M6.2,69.4c0,0.3,0,0.6,0.1,0.9C6.2,70,6.2,69.7,6.2,69.4z"/>
			<path class="st0" d="M1,68.8c0-0.1,0-0.2,0-0.3c0,0.3,0,0.6,0,0.9c0-0.1,0-0.3,0-0.4C1,69,1,68.9,1,68.8z"/>
			<path class="st0" d="M1.1,70.8c0-0.3-0.1-0.6-0.1-0.9C1.1,70.2,1.1,70.5,1.1,70.8z"/>
			<path class="st0" d="M1,69.1c0-0.1,0-0.1,0-0.2C1,68.9,1,69,1,69.1z"/>
			<path class="st0" d="M1.2,71.3c0-0.2,0-0.4-0.1-0.5C1.1,70.9,1.1,71.1,1.2,71.3z"/>
			<path class="st0" d="M1,69.9c0-0.1,0-0.2,0-0.4C1,69.6,1,69.7,1,69.9z"/>
			<path class="st0" d="M1.4,72.8c-0.1-0.4-0.1-0.7-0.2-1.1C1.3,72.1,1.3,72.4,1.4,72.8z"/>
			<path class="st0" d="M1,68.2v0.2c0,0,0,0.1,0,0.1c0,0.1,0,0.2,0,0.3C1,68.6,1,68.4,1,68.2z"/>
			<path class="st0" d="M6.2,36.7C2.9,40.9,1,46.1,1,51.8c0,0,0,0,0,0.1v16.6c0,0,0,0.1,0,0.1c0,0,0-0.1,0-0.1v-0.2
				c0,0.2,0,0.4,0,0.6c0,0.1,0,0.1,0,0.2c0,0.1,0,0.3,0,0.4c0,0.1,0,0.2,0,0.4c0,0.3,0,0.6,0.1,0.9c0,0.2,0,0.4,0.1,0.5
				c0,0.1,0,0.3,0.1,0.4c0,0.4,0.1,0.7,0.2,1.1c0,0,0,0.1,0,0.1c0.1,0.5,0.2,0.9,0.3,1.4c2.1-1,3.6-2,4.6-3.6c0-0.1,0-0.3,0-0.4
				c0-0.3,0-0.6-0.1-0.9c0-0.3,0-0.6,0-0.9V51.7c0-10.7,8.6-19.5,19.3-19.7v-5.2C17.6,26.9,10.6,30.8,6.2,36.7z"/>
		</g>
		<path class="st0" d="M25.5,0.7h-0.2v0C11.9,1,1,12,1,25.6v17.1c1.1-3.3,2.9-6.2,5.2-8.8v-8.3c0-10.7,8.6-19.5,19.3-19.7v0h0.1V0.7
			z"/>
		<path class="st1" d="M29.1,0.7h-1.6v0h-0.1v5.2h0.2v0h1.5c10.9,0,19.7,8.9,19.7,19.7v10.8l0,15.3v16.8c0,10.9-8.9,19.7-19.7,19.7
			h-3.2c-1.2,0-2.4-0.1-3.6-0.3C14.6,86.4,8.5,80.6,6.7,73l0,0c0,0,0,0,0,0c-1.1,1.3-2.6,2.2-4.5,3l0,0l0,0
			C5.5,86,14.9,93.3,25.9,93.3h3.2C42.8,93.3,54,82.2,54,68.4V25.6C54,11.8,42.8,0.7,29.1,0.7z"/>
	</g>
	<g>
		<g>
			<g>
				<g>
					<path class="st1" d="M98.6,74.8h-8v-3.2h6.2c0.3,0,0.6-0.2,0.6-0.6v-1.2c0-0.3-0.2-0.6-0.6-0.6h-6.2V66H98
						c0.3,0,0.6-0.2,0.6-0.6v-1.2c0-0.3-0.2-0.6-0.6-0.6h-9c-0.3,0-0.6,0.2-0.6,0.6v12.2c0,0.3,0.2,0.6,0.6,0.6h9.6
						c0.3,0,0.6-0.2,0.6-0.6v-1.2C99.2,75,98.9,74.8,98.6,74.8z"/>
					<path class="st1" d="M137,63.9h-4.6c-1.9,0-3.5,1.6-3.5,3.5v6c0,1.9,1.6,3.5,3.5,3.5h5c1.9,0,3.5-1.6,3.5-3.5v-5.7
						C140.9,65.6,139.1,63.9,137,63.9z M131,67.4c0-0.7,0.6-1.3,1.3-1.3h4.6c0.9,0,1.7,0.7,1.7,1.7v5.7c0,0.7-0.6,1.3-1.3,1.3h-5
						c-0.7,0-1.3-0.6-1.3-1.3V67.4z"/>
					<path class="st1" d="M118.5,71L118.5,71L118.5,71c0.2-0.2,0.4-0.4,0.5-0.6c0.4-0.5,0.5-1.4,0.5-2.7c0-1.4-0.3-2.5-1-3.1
						c-0.6-0.6-1.7-0.9-3.1-0.9h-6.9c-0.3,0-0.5,0.2-0.5,0.5v12.2c0,0.3,0.2,0.5,0.5,0.5h1.1c0.3,0,0.5-0.2,0.5-0.5V66h5.3
						c1,0,1.3,0.2,1.4,0.3c0.1,0.1,0.3,0.4,0.3,1.8c0,0.7-0.1,1.2-0.4,1.4c-0.2,0.1-0.6,0.3-1.8,0.3h-2.9c-0.4,0-0.8,0.4-0.8,0.8
						v0.7c0,0.4,0.4,0.8,0.8,0.8h3.5c0.7,0,1.3,0.2,1.3,1.6v2.5c0,0.4,0.4,0.8,0.8,0.8h0.9c0.4,0,0.8-0.4,0.8-0.8v-2.9
						C119.4,72.3,119.1,71.5,118.5,71z"/>
					<path class="st1" d="M68.6,77c-0.3,0-0.5-0.2-0.5-0.5v-1.2c0-0.1,0-0.2,0.1-0.3l6.8-8.7c0,0,0-0.1,0-0.2c0-0.1-0.1-0.1-0.1-0.1
						h-6.6c-0.3,0-0.5-0.2-0.5-0.5v-1.2c0-0.3,0.2-0.5,0.5-0.5H78c0.3,0,0.5,0.2,0.5,0.5v1.2c0,0.1,0,0.2-0.1,0.3l-6.8,8.7
						c0,0.1,0,0.1,0,0.2c0,0.1,0.1,0.1,0.1,0.1h7c0.3,0,0.5,0.2,0.5,0.5v1.2c0,0.3-0.2,0.5-0.5,0.5H68.6z"/>
				</g>
			</g>
		</g>
	</g>
	<g>
		<g>
			<path class="st2" d="M150.2,76.6V64.2c0-0.2,0.2-0.4,0.4-0.4h9.8c0.2,0,0.4,0.2,0.4,0.4v1.1c0,0.2-0.2,0.4-0.4,0.4h-7.7
				c-0.2,0-0.4,0.2-0.4,0.4v2.8c0,0.2,0.2,0.4,0.4,0.4h6.2c0.2,0,0.4,0.2,0.4,0.4v1.1c0,0.2-0.2,0.4-0.4,0.4h-6.2
				c-0.2,0-0.4,0.2-0.4,0.4v4.9c0,0.2-0.2,0.4-0.4,0.4h-1.3C150.3,77,150.2,76.8,150.2,76.6z"/>
		</g>
		<g>
			<path class="st2" d="M170.5,76.6V64.2c0-0.2,0.2-0.4,0.4-0.4h1.3c0.2,0,0.4,0.2,0.4,0.4v12.4c0,0.2-0.2,0.4-0.4,0.4h-1.3
				C170.7,77,170.5,76.8,170.5,76.6z"/>
		</g>
		<g>
			<path class="st2" d="M192.1,77c-0.1,0-0.3-0.1-0.4-0.2l-4.9-7.9c-0.2-0.3-0.5-0.8-0.6-1l0,0c-0.2-0.4-0.8-0.2-0.8,0.2v8.5
				c0,0.2-0.2,0.4-0.4,0.4h-1.3c-0.2,0-0.4-0.2-0.4-0.4V64.2c0-0.2,0.2-0.4,0.4-0.4h2.2c0.1,0,0.3,0.1,0.4,0.2l4.2,6.9
				c0.2,0.3,0.5,0.8,0.7,1.2l0.6,1c0.2,0.4,0.8,0.2,0.8-0.2v-8.6c0-0.2,0.2-0.4,0.4-0.4h1.3c0.2,0,0.4,0.2,0.4,0.4v12.4
				c0,0.2-0.2,0.4-0.4,0.4H192.1z"/>
		</g>
		<g>
			<path class="st2" d="M236.2,77c-0.1,0-0.3-0.1-0.4-0.2l-4.9-7.9c-0.2-0.3-0.5-0.8-0.6-1l0,0c-0.2-0.4-0.8-0.2-0.8,0.2v8.5
				c0,0.2-0.2,0.4-0.4,0.4h-1.3c-0.2,0-0.4-0.2-0.4-0.4V64.2c0-0.2,0.2-0.4,0.4-0.4h2.2c0.1,0,0.3,0.1,0.4,0.2l4.2,6.9
				c0.2,0.3,0.5,0.8,0.7,1.2l0.6,1c0.2,0.4,0.8,0.2,0.8-0.2v-8.6c0-0.2,0.2-0.4,0.4-0.4h1.3c0.2,0,0.4,0.2,0.4,0.4v12.4
				c0,0.2-0.2,0.4-0.4,0.4H236.2z"/>
		</g>
		<g>
			<path class="st2" d="M215.4,77c-0.2,0-0.3-0.1-0.4-0.3l-0.7-2c-0.1-0.4-0.3-0.9-0.4-1.2c-0.1-0.3-0.3-0.8-0.4-1.2l-1.8-5
				c-0.1-0.4-0.7-0.4-0.8,0l-1.8,5c-0.1,0.4-0.3,0.9-0.4,1.2s-0.3,0.8-0.4,1.2l-0.7,2c-0.1,0.2-0.2,0.3-0.4,0.3h-1.4
				c-0.3,0-0.5-0.3-0.4-0.6l4.6-12.4c0.1-0.2,0.2-0.3,0.4-0.3h1.9c0.2,0,0.3,0.1,0.4,0.3l4.6,12.4c0.1,0.3-0.1,0.6-0.4,0.6H215.4z"
				/>
		</g>
		<path class="st2" d="M279.9,75.1h-8.4v-3.7h6.5c0.2,0,0.4-0.2,0.4-0.4v-1.1c0-0.2-0.2-0.4-0.4-0.4h-6.5v-3.7h7.8
			c0.2,0,0.4-0.2,0.4-0.4v-1.1c0-0.2-0.2-0.4-0.4-0.4h-8.2h-1c-0.2,0-0.4,0.2-0.4,0.4v1.1v4.6v1.1v4.6v1.1c0,0.2,0.2,0.4,0.4,0.4h1
			h8.8c0.2,0,0.4-0.2,0.4-0.4v-1.1C280.4,75.3,280.2,75.1,279.9,75.1z"/>
		<path class="st2" d="M259.1,65.6c0.2,0,0.4-0.2,0.4-0.4v-1c0-0.2-0.2-0.4-0.4-0.4h-8.5h-1h0c-0.1,0-0.2,0-0.2,0.1c0,0,0,0,0,0
			c0,0,0,0,0,0c-0.1,0.1-0.1,0.2-0.1,0.3v0v1v10.4V76v0.6c0,0.2,0.2,0.4,0.4,0.4h9.5c0.2,0,0.4-0.2,0.4-0.4v-1
			c0-0.2-0.2-0.4-0.4-0.4H251v-9.6H259.1z"/>
	</g>
	<g>
		<path class="st0" d="M143,17.5c-0.3,1.1-0.7,2.4-1,3.4c-0.1,0.2,0.1,0.4,0.3,0.4c3,0,19.4,0,21.9,0c0.2,0,0.3,0.2,0.3,0.3V24
			c0,0.2-0.2,0.3-0.3,0.3l-23.3,0c-0.1,0-0.2,0.1-0.3,0.2c-1.5,3.3-3.4,6.2-5.8,8.7c-0.1,0.1-0.1,0.1-0.1,0.2l0,21
			c0,0.2-0.2,0.3-0.3,0.3H132c-0.2,0-0.3-0.2-0.3-0.3l0-17.5c0-0.3-0.3-0.4-0.5-0.3c-1,0.8-2.3,1.8-3.3,2.5
			c-0.2,0.1-0.4,0.1-0.5-0.1c-0.3-0.5-1-1.5-1.3-2c-0.1-0.2-0.1-0.3,0.1-0.4c4.4-2.9,8.4-7.1,10.9-11.8c0.1-0.2,0-0.5-0.3-0.5
			c-2,0-9,0-10.6,0c-0.2,0-0.3-0.2-0.3-0.3v-2.3c0-0.2,0.2-0.3,0.3-0.3l12.2,0c0.1,0,0.3-0.1,0.3-0.2c0.5-1.2,0.9-2.4,1.2-3.8
			c0-0.2,0.2-0.3,0.3-0.3c0.5,0,1.8,0,2.5,0C142.8,17.1,143,17.3,143,17.5z M162.7,38h-9.9c-0.2,0-0.3,0.2-0.3,0.3v13.2
			c0,0.2,0.2,0.3,0.3,0.3h11.3c0.2,0,0.3,0.2,0.3,0.3v2.3c0,0.2-0.2,0.3-0.3,0.3h-26.9c-0.2,0-0.3-0.2-0.3-0.3v-2.3
			c0-0.2,0.2-0.3,0.3-0.3h11.9c0.2,0,0.3-0.2,0.3-0.3V38.3c0-0.2-0.2-0.3-0.3-0.3h-10.2c-0.2,0-0.3-0.2-0.3-0.3v-2.3
			c0-0.2,0.2-0.3,0.3-0.3h10.2c0.2,0,0.3-0.2,0.3-0.3v-6.1c0-0.2,0.2-0.3,0.3-0.3h2.3c0.2,0,0.3,0.2,0.3,0.3v6.1
			c0,0.2,0.2,0.3,0.3,0.3h9.9c0.2,0,0.3,0.2,0.3,0.3v2.3C163.1,37.8,162.9,38,162.7,38z"/>
		<path class="st0" d="M220.4,33.4c-0.2,0.1-0.4,0-0.4-0.2l-4-10.7c-0.5-1.3-1.5-2.5-2.8-2.5h-20.4c-1.3,0-2.3,1.2-2.8,2.5l-4,10.7
			c-0.1,0.2-0.3,0.3-0.4,0.2l-2.2-0.8c-0.2-0.1-0.3-0.3-0.2-0.4l3.9-10.7c0.9-2.4,2.9-4.4,5.7-4.4h20.4c2.7,0,4.8,2,5.7,4.4
			l3.9,10.7c0.1,0.2,0,0.4-0.2,0.4L220.4,33.4z M219.8,40.5h-14.9c-0.2,0-0.3,0.2-0.3,0.3v10.5c0,0.2,0.2,0.3,0.3,0.3h5.4
			c0.1,0,0.3-0.1,0.3-0.2l3.5-9c0.1-0.2,0.3-0.3,0.4-0.2l2.2,0.8c0.2,0.1,0.3,0.3,0.2,0.4l-3,7.7c-0.1,0.2,0.1,0.5,0.3,0.5h7.6
			c0.2,0,0.3,0.2,0.3,0.3v2.3c0,0.2-0.2,0.3-0.3,0.3h-37.7c-0.2,0-0.3-0.2-0.3-0.3V52c0-0.2,0.2-0.3,0.3-0.3h7.6
			c0.2,0,0.4-0.2,0.3-0.5l-2.9-7.5c-0.1-0.2,0-0.4,0.2-0.4l2.1-0.8c0.2-0.1,0.4,0,0.4,0.2l3.4,8.8c0.1,0.1,0.2,0.2,0.3,0.2h5.5
			c0.2,0,0.3-0.2,0.3-0.3V40.8c0-0.2-0.2-0.3-0.3-0.3h-14.9c-0.2,0-0.3-0.2-0.3-0.3v-2.3c0-0.2,0.2-0.3,0.3-0.3h14.9
			c0.2,0,0.3-0.2,0.3-0.3v-6c0-0.2-0.2-0.3-0.3-0.3H190c-0.2,0-0.3-0.2-0.3-0.3v-2.4c0-0.2,0.2-0.3,0.3-0.3h26.1
			c0.2,0,0.3,0.2,0.3,0.3v2.4c0,0.2-0.2,0.3-0.3,0.3h-11.2c-0.2,0-0.3,0.2-0.3,0.3v6c0,0.2,0.2,0.3,0.3,0.3h14.9
			c0.2,0,0.3,0.2,0.3,0.3v2.3C220.1,40.4,219.9,40.5,219.8,40.5z"/>
		<g>
			<path class="st0" d="M91.4,35h10c0.2,0,0.4-0.2,0.4-0.4v-2.3c0-0.2-0.2-0.4-0.4-0.4h-10c-0.2,0-0.4,0.2-0.4,0.4v2.3
				C91,34.9,91.2,35,91.4,35z"/>
			<path class="st0" d="M70.8,25.8c0-0.5,0.4-0.9,0.9-0.9h13.7c0.2,0,0.4,0.2,0.4,0.4v9.3c0,0.2,0.2,0.4,0.4,0.4h2.3
				c0.2,0,0.4-0.2,0.4-0.4v-9.3c0-0.2,0.2-0.4,0.4-0.4h13.7c0.5,0,0.9,0.4,0.9,0.9v8.9c0,0.2,0.2,0.4,0.4,0.4h2.3
				c0.2,0,0.4-0.2,0.4-0.4v-8.9c0-2.2-1.7-3.9-3.9-3.9H89.2c-0.2,0-0.4-0.2-0.4-0.4v-1.2c0-0.2,0.2-0.4,0.4-0.4h17.3
				c0.2,0,0.4-0.2,0.4-0.4v-2.3c0-0.2-0.2-0.4-0.4-0.4H68.2c-0.2,0-0.4,0.2-0.4,0.4v2.3c0,0.2,0.2,0.4,0.4,0.4h17.3
				c0.2,0,0.4,0.2,0.4,0.4v1.2c0,0.2-0.2,0.4-0.4,0.4H71.8c-2.2,0-3.9,1.7-3.9,3.9v8.9c0,0.2,0.2,0.4,0.4,0.4h2.3
				c0.2,0,0.4-0.2,0.4-0.4V25.8z"/>
			<path class="st0" d="M83.2,27.1h-10c-0.2,0-0.4,0.2-0.4,0.4v2.3c0,0.2,0.2,0.4,0.4,0.4h10c0.2,0,0.4-0.2,0.4-0.4v-2.3
				C83.6,27.2,83.4,27.1,83.2,27.1z"/>
			<path class="st0" d="M101.4,27.1h-10c-0.2,0-0.4,0.2-0.4,0.4v2.3c0,0.2,0.2,0.4,0.4,0.4h10c0.2,0,0.4-0.2,0.4-0.4v-2.3
				C101.8,27.2,101.6,27.1,101.4,27.1z"/>
			<path class="st0" d="M103.2,40.2L103.2,40.2c-1.2-2-3.1-3.2-5.9-3.2h-20c-2.9,0-4.7,1.2-6,3.3l0,0l-3.1,5
				c-0.1,0.2-0.1,0.4,0.1,0.5l2,1.3c0.2,0.1,0.4,0.1,0.5-0.1l3.1-5c0.7-1.2,1.8-1.9,3.5-1.9h20c1.6,0,2.7,0.7,3.4,1.9l3.2,5
				c0.1,0.2,0.3,0.2,0.5,0.1l2-1.3c0.2-0.1,0.2-0.3,0.1-0.5L103.2,40.2z"/>
			<path class="st0" d="M73.2,35h10c0.2,0,0.4-0.2,0.4-0.4v-2.3c0-0.2-0.2-0.4-0.4-0.4h-10c-0.2,0-0.4,0.2-0.4,0.4v2.3
				C72.8,34.9,73,35,73.2,35z"/>
			<path class="st0" d="M88.8,43.5c0-0.8-0.7-1.5-1.5-1.5c-0.8,0-1.5,0.7-1.5,1.5v1H74.7c-0.2,0-0.3,0.2-0.3,0.3v2.3
				c0,0.2,0.2,0.3,0.3,0.3h21.7c0.2,0,0.3,0.2,0.3,0.3v3.6c0,0.2-0.2,0.3-0.3,0.3H83.7c-0.2,0-0.3,0.2-0.3,0.3v2.3
				c0,0.2,0.2,0.3,0.3,0.3h15.7c0.2,0,0.3-0.1,0.3-0.3l0.1-9.7c0-0.2-0.1-0.3-0.3-0.3H88.8V43.5z"/>
		</g>
		<g>
			<path class="st0" d="M247.1,21.9c-2.6,0-4.8,2.2-4.8,4.8v1.4c0,2.6,2.2,4.8,4.8,4.8h11.2c2.6,0,4.8-2.2,4.8-4.8v-1.4
				c0-2.6-2.2-4.8-4.8-4.8H247.1z M260,26.7v1.4c0,1-0.8,1.8-1.7,1.8h-11.2c-1,0-1.8-0.8-1.8-1.8v-1.4c0-1,0.8-1.8,1.8-1.8h11.2
				C259.3,24.9,260,25.7,260,26.7z"/>
			<path class="st0" d="M263.4,17.1H242c-0.2,0-0.3,0.2-0.3,0.3v2.3c0,0.2,0.2,0.3,0.3,0.3h21.4c0.2,0,0.3-0.2,0.3-0.3v-2.3
				C263.7,17.3,263.6,17.1,263.4,17.1z"/>
			<path class="st0" d="M259.6,44.8h-1.5c-0.2,0-0.4-0.2-0.4-0.4v-4.1c0-0.2-0.2-0.3-0.3-0.3H255c-0.2,0-0.3,0.2-0.3,0.3v4.2
				c0,0.2-0.2,0.3-0.3,0.3h-3.3c-0.2,0-0.3-0.2-0.3-0.3v-4.2c0-0.2-0.2-0.3-0.3-0.3h-2.3c-0.2,0-0.3,0.2-0.3,0.3v4.1
				c0,0.2-0.2,0.4-0.4,0.4h-1.6c-0.2,0-0.4,0.2-0.4,0.4v2.2c0,0.2,0.2,0.3,0.3,0.3h5.3c0.2,0,0.3,0.2,0.3,0.3v6.2
				c0,0.2,0.2,0.3,0.3,0.3h2.3c0.2,0,0.3-0.2,0.3-0.3v-6.2c0-0.2,0.2-0.3,0.3-0.3h5.2c0.2,0,0.3-0.2,0.3-0.3v-2.2
				C260.1,45,259.9,44.8,259.6,44.8z"/>
			<path class="st0" d="M258.2,34.8h-11.1c-3.1,0-5.5,2.5-5.5,5.6v14c0,0.2,0.2,0.3,0.3,0.3h2.2c0.2,0,0.4-0.2,0.4-0.4V40.4
				c0-1.4,1.2-2.6,2.5-2.6h11.1c1.4,0,2.6,1.1,2.6,2.6v8.7c0,1.4-1.1,2.6-2.6,2.6h-1.6c-0.2,0-0.3,0.2-0.3,0.3v2.3
				c0,0.2,0.1,0.3,0.3,0.3h1.6c3.1,0,5.6-2.4,5.6-5.5v-8.7C263.8,37.4,261.3,34.8,258.2,34.8z"/>
			<g>
				<path class="st0" d="M280.7,46.9h-2.3c-0.2,0-0.3,0.2-0.3,0.3v2.7c0,1-0.8,1.8-1.9,1.8h-1.2c-0.2,0-0.4-0.2-0.4-0.4v-8.6
					c0-0.2,0.2-0.3,0.3-0.3h-0.3v0h1.4c2.7,0,5-2.2,5-4.8V27c0-2.6-2.3-4.7-5-4.7h-1.4v0h0.3c-0.2,0-0.3-0.2-0.3-0.3v-4.4
					c0-0.2-0.2-0.3-0.3-0.3h-2.3c-0.2,0-0.3,0.2-0.3,0.3v4.7h0v-0.3c0,0.2-0.1,0.3-0.3,0.3h-1c-2.7,0-5,2.2-5,4.7v10.6
					c0,2.6,2.2,4.8,5,4.8h1c0.2,0,0.3,0.1,0.3,0.3v8.7c0,0.2-0.2,0.3-0.3,0.3h-5.8c-0.2,0-0.3,0.2-0.3,0.3v2.3
					c0,0.2,0.2,0.3,0.3,0.3H276c2.7,0,5-2.2,5-4.8v-2.7C281,47.1,280.8,46.9,280.7,46.9z M268.1,37.6V27c0-1,0.8-1.7,1.9-1.7h1
					c0.2,0,0.3,0.2,0.3,0.3v-0.3h0v14.1H270C268.9,39.3,268.1,38.5,268.1,37.6z M275.8,25.2c1.1,0,1.9,0.8,1.9,1.7v10.6
					c0,1-0.9,1.8-1.9,1.8h-1.4V25.2H275.8z"/>
				<path class="st0" d="M271.1,39.3h0.3V39C271.4,39.2,271.2,39.3,271.1,39.3z"/>
				<path class="st0" d="M274.4,39v0.3h0.3C274.6,39.3,274.4,39.2,274.4,39z"/>
				<path class="st0" d="M274.7,25.2h-0.3v0.3C274.4,25.4,274.6,25.2,274.7,25.2z"/>
			</g>
		</g>
	</g>
</g>
</svg>
