<svg enable-background="new 0 0 200 68" viewBox="0 0 200 68" xmlns="http://www.w3.org/2000/svg"><g fill="#e6e7e8"><path d="m1.2 51.5c0-.1 0-.2 0-.3-.1.1-.1.2 0 .3z"/><path d="m4.7 49.8v.6c0-.2 0-.4 0-.6z"/><path d="m1 49.5c0-.1 0-.1 0-.2v.7c0-.1 0-.2 0-.3s0-.2 0-.2z"/><path d="m1.1 50.8c0-.2 0-.4 0-.6-.1.2 0 .4 0 .6z"/><path d="m1 49.6c0-.1 0-.1 0-.2z"/><path d="m1.1 51.2c0-.1 0-.3 0-.4z"/><path d="m1 50.2c0-.1 0-.2 0-.3z"/><path d="m1.3 52.2c0-.3-.1-.5-.1-.8 0 .3 0 .6.1.8z"/><path d="m1 49v.1.1.2c0-.1 0-.2 0-.4z"/><path d="m4.6 26.7c-2.2 3-3.6 6.7-3.6 10.7v11.7.1-.1-.1.4.2.3.3.6.4.3c0 .3.1.5.1.8v.1c.1.3.1.6.2 1 1.5-.7 2.6-1.4 3.2-2.5 0-.1 0-.2 0-.3 0-.2 0-.4 0-.6s0-.4 0-.7v-12c0-7.6 6.1-13.8 13.6-14v-3.6c-5.4.1-10.3 2.8-13.5 7z"/><path d="m18.3 1.2h-.1c-9.5.3-17.2 8.1-17.2 17.6v12.1c.8-2.4 2-4.4 3.6-6.2v-5.9c0-7.6 6.1-13.8 13.6-14h.1z"/></g><path d="m20.9 1.2h-1.1-.1v3.6h.1 1.1c7.7 0 14 6.3 14 14v7.6 10.8 11.9c0 7.7-6.3 14-14 14h-2.3c-.9 0-1.7-.1-2.5-.2-5.4-1-9.8-5.2-11-10.5-.8.9-1.8 1.6-3.2 2.2 2.3 7 9 12.2 16.7 12.2h2.3c9.7 0 17.6-7.9 17.6-17.6v-30.4c0-9.7-7.9-17.6-17.6-17.6z" fill="#f8b500"/><path d="m70 53.6h-5.7v-2.3h4.4c.2 0 .4-.2.4-.4v-.8c0-.2-.2-.4-.4-.4h-4.4v-2.3h5.2c.2 0 .4-.2.4-.4v-.8c0-.2-.2-.4-.4-.4h-6.4c-.2 0-.4.2-.4.4v8.6c0 .2.2.4.4.4h6.9c.2 0 .4-.2.4-.4v-.8c0-.2-.1-.4-.4-.4z" fill="#f8b500"/><path d="m97.2 45.9h-3.3c-1.4 0-2.5 1.1-2.5 2.5v4.3c0 1.4 1.1 2.5 2.5 2.5h3.5c1.4 0 2.5-1.1 2.5-2.5v-4c0-1.6-1.2-2.8-2.7-2.8zm-4.2 2.5c0-.5.4-.9.9-.9h3.3c.6 0 1.2.5 1.2 1.2v4c0 .5-.4.9-.9.9h-3.5c-.5 0-.9-.4-.9-.9v-4.3z" fill="#f8b500"/><path d="m84.1 51c.2-.2.3-.3.4-.4.3-.4.4-1 .4-1.9 0-1-.2-1.7-.7-2.2-.5-.4-1.2-.7-2.2-.7h-4.9c-.2 0-.4.2-.4.4v8.6c0 .2.2.4.4.4h.8c.2 0 .4-.2.4-.4v-7.4h3.7c.7 0 .9.2 1 .2 0 .1.2.3.2 1.3 0 .5-.1.8-.3 1-.1.1-.4.2-1.3.2h-2c-.3 0-.6.3-.6.6v.5c0 .3.3.6.6.6h2.5c.5 0 .9.1.9 1.1v1.8c0 .3.3.6.6.6h.6c.3 0 .6-.3.6-.6v-2c0-.8-.3-1.3-.7-1.7z" fill="#f8b500"/><path d="m48.8 55.2c-.2 0-.4-.2-.4-.4v-.8c0-.1 0-.2.1-.2l4.8-6.1v-.1s-.1-.1-.1-.1h-4.7c-.2 0-.4-.2-.4-.4v-.8c0-.2.2-.4.4-.4h6.9c.2 0 .4.2.4.4v.8c0 .1 0 .2-.1.2l-4.8 6.2v.1s.1.1.1.1h5c.2 0 .4.2.4.4v.8c0 .2-.2.4-.4.4h-7.2z" fill="#f8b500"/><g fill="#e6e7e8"><path d="m106.5 54.9v-8.8c0-.2.1-.3.3-.3h6.9c.2 0 .3.1.3.3v.8c0 .2-.1.3-.3.3h-5.4c-.2 0-.3.1-.3.3v2c0 .2.1.3.3.3h4.4c.2 0 .3.1.3.3v.8c0 .2-.1.3-.3.3h-4.4c-.2 0-.3.1-.3.3v3.5c0 .2-.1.3-.3.3h-.9c-.2-.1-.3-.2-.3-.4z"/><path d="m120.9 54.9v-8.8c0-.2.1-.3.3-.3h.9c.2 0 .3.1.3.3v8.8c0 .2-.1.3-.3.3h-.9c-.2 0-.3-.1-.3-.3z"/><path d="m136.1 55.2c-.1 0-.2-.1-.3-.1l-3.5-5.6c-.1-.2-.3-.5-.4-.7-.2-.3-.6-.1-.6.2v6c0 .2-.1.3-.3.3h-.9c-.2 0-.3-.1-.3-.3v-8.8c0-.2.1-.3.3-.3h1.6c.1 0 .2.1.3.1l3 4.9c.1.2.4.6.5.8l.4.7c.2.3.6.1.6-.2v-6c0-.2.1-.3.3-.3h.9c.2 0 .3.1.3.3v8.8c0 .2-.1.3-.3.3h-1.6z"/><path d="m167.3 55.2c-.1 0-.2-.1-.3-.1l-3.5-5.6c-.1-.2-.3-.5-.4-.7-.2-.3-.6-.1-.6.2v6c0 .2-.1.3-.3.3h-.9c-.2 0-.3-.1-.3-.3v-8.8c0-.2.1-.3.3-.3h1.6c.1 0 .2.1.3.1l3 4.9c.1.2.4.6.5.8l.4.7c.2.3.6.1.6-.2v-6c0-.2.1-.3.3-.3h.9c.2 0 .3.1.3.3v8.8c0 .2-.1.3-.3.3h-1.6z"/><path d="m152.6 55.2c-.1 0-.2-.1-.3-.2l-.5-1.4c-.1-.2-.2-.6-.3-.8s-.2-.6-.3-.8l-1.3-3.5c-.1-.3-.5-.3-.6 0l-1.3 3.5c-.1.2-.2.6-.3.8s-.2.6-.3.8l-.5 1.4c0 .1-.2.2-.3.2h-1c-.2 0-.4-.2-.3-.4l3.2-8.8c0-.1.2-.2.3-.2h1.3c.1 0 .2.1.3.2l3.3 8.8c.1.2-.1.4-.3.4z"/><path d="m198.3 53.9h-6v-2.6h4.6c.2 0 .3-.1.3-.3v-.8c0-.2-.1-.3-.3-.3h-4.6v-2.6h5.5c.2 0 .3-.1.3-.3v-.8c0-.2-.1-.3-.3-.3h-5.8-.7c-.2 0-.3.1-.3.3v.8 3.2.8 3.2.8c0 .2.1.3.3.3h.7 6.3c.2 0 .3-.1.3-.3v-.8c0-.2-.2-.3-.3-.3z"/><path d="m183.5 47.1c.2 0 .3-.1.3-.3v-.7c0-.2-.1-.3-.3-.3h-6-.7c-.1 0-.1 0-.2.1s-.1.1-.1.2v.7 7.4.3.5c0 .2.1.3.3.3h6.7c.2 0 .3-.1.3-.3v-.7c0-.2-.1-.3-.3-.3h-5.7v-6.8h5.7z"/><path d="m101.4 13.1c-.2.8-.5 1.7-.7 2.4-.1.2.1.3.2.3h15.5c.1 0 .2.1.2.2v1.6c0 .1-.1.2-.2.2h-16.5c-.1 0-.2.1-.2.1-1.1 2.3-2.4 4.4-4.1 6.1 0 0-.1.1-.1.2v14.9c0 .1-.1.2-.2.2h-1.6c-.1 0-.2-.1-.2-.2v-12.4c0-.2-.2-.3-.4-.2-.7.6-1.6 1.3-2.4 1.7-.1.1-.3 0-.3-.1-.2-.3-.7-1.1-.9-1.4-.1-.1 0-.2.1-.3 3.1-2.1 6-5 7.7-8.3.1-.2 0-.4-.2-.4-1.4 0-6.4 0-7.5 0-.1 0-.2-.1-.2-.2v-1.6c0-.1.1-.2.2-.2h8.6c.1 0 .2-.1.2-.2.3-.9.6-1.7.8-2.7 0-.1.1-.2.2-.2h1.7c.2.2.3.4.3.5zm14 14.5h-7c-.1 0-.2.1-.2.2v9.3c0 .1.1.2.2.2h8c.1 0 .2.1.2.2v1.6c0 .1-.1.2-.2.2h-19c-.1 0-.2-.1-.2-.2v-1.6c0-.1.1-.2.2-.2h8.4c.1 0 .2-.1.2-.2v-9.3c0-.1-.1-.2-.2-.2h-7.2c-.1 0-.2-.1-.2-.2v-1.6c0-.1.1-.2.2-.2h7.2c.1 0 .2-.1.2-.2v-4.3c0-.1.1-.2.2-.2h1.6c.1 0 .2.1.2.2v4.3c0 .1.1.2.2.2h7c.1 0 .2.1.2.2v1.6c.2.1.1.2 0 .2z"/><path d="m156.2 24.4c-.1 0-.3 0-.3-.1l-2.8-7.5c-.3-.9-1.1-1.8-2-1.8h-14.4c-.9 0-1.7.8-2 1.8l-2.8 7.5c0 .1-.2.2-.3.1l-1.6-.6c-.1 0-.2-.2-.1-.3l2.8-7.5c.6-1.7 2.1-3.1 4-3.1h14.4c1.9 0 3.4 1.4 4 3.1l2.8 7.5c0 .1 0 .3-.1.3zm-.5 5h-10.5c-.1 0-.2.1-.2.2v7.4c0 .1.1.2.2.2h3.8c.1 0 .2-.1.2-.2l2.5-6.4c0-.1.2-.2.3-.1l1.6.6c.1 0 .2.2.1.3l-2.1 5.5c-.1.2.1.3.2.3h5.4c.1 0 .2.1.2.2v1.6c0 .1-.1.2-.2.2h-26.6c-.1 0-.2-.1-.2-.2v-1.6c0-.1.1-.2.2-.2h5.4c.2 0 .3-.2.2-.3l-2-5.3c0-.1 0-.3.1-.3l1.5-.6c.1 0 .3 0 .3.1l2.4 6.3c0 .1.1.2.2.2h3.9c.1 0 .2-.1.2-.2v-7.4c0-.1-.1-.2-.2-.2h-10.6c-.1 0-.2-.1-.2-.2v-1.6c0-.1.1-.2.2-.2h10.5c.1 0 .2-.1.2-.2v-4.2c0-.1-.1-.2-.2-.2h-7.9c-.1 0-.2-.1-.2-.2v-1.7c0-.1.1-.2.2-.2h18.5c.1 0 .2.1.2.2v1.7c0 .1-.1.2-.2.2h-7.9c-.1 0-.2.1-.2.2v3.9c0 .1.1.2.2.2h10.5c.1 0 .2.1.2.2v1.6c0 .3-.1.4-.2.4z"/><path d="m64.9 25.5h7.1c.1 0 .3-.1.3-.3v-1.6c0-.1-.1-.3-.3-.3h-7.1c-.1 0-.3.1-.3.3v1.6c.1.2.2.3.3.3z"/><path d="m50.4 19c0-.3.3-.6.7-.6h9.7c.1 0 .3.1.3.3v6.6c0 .1.1.3.3.3h1.6c.1 0 .3-.1.3-.3v-6.6c0-.1.1-.3.3-.3h9.7c.3 0 .6.3.6.6v6.3c0 .1.1.3.3.3h1.6c.1 0 .3-.1.3-.3v-6.3c0-1.6-1.2-2.8-2.8-2.8h-9.7c-.1 0-.3-.1-.3-.3v-.9c0-.1.1-.3.3-.3h12.2c.1 0 .3-.1.3-.3v-1.4c0-.1-.1-.3-.3-.3h-27c-.1 0-.3.1-.3.3v1.6c0 .1.1.3.3.3h12.2c.1 0 .3.1.3.3v.8c0 .1-.1.3-.3.3h-9.7c-1.5 0-2.8 1.2-2.8 2.8v6.3c0 .1.1.3.3.3h1.6c.1 0 .3-.1.3-.3v-6.4z"/><path d="m59.2 19.9h-7.1c-.1 0-.3.1-.3.3v1.6c0 .1.1.3.3.3h7.1c.1 0 .3-.1.3-.3v-1.6c-.1-.2-.2-.3-.3-.3z"/><path d="m72 19.9h-7.1c-.1 0-.3.1-.3.3v1.6c0 .1.1.3.3.3h7.1c.1 0 .3-.1.3-.3v-1.6c0-.2-.1-.3-.3-.3z"/><path d="m73.3 29.2c-.9-1.4-2.2-2.3-4.2-2.3h-14.1c-2 0-3.3.9-4.3 2.3l-2.2 3.5c-.1.1 0 .3.1.3l1.4 1c.1.1.3 0 .3-.1l2.2-3.5c.5-.8 1.3-1.3 2.4-1.3h14.1c1.2 0 1.9.5 2.4 1.3l2.2 3.5c.2.1.4.1.5.1l1.4-.9c.1-.1.1-.2.1-.3z"/><path d="m52.1 25.5h7.1c.1 0 .3-.1.3-.3v-1.6c0-.1-.1-.3-.3-.3h-7.1c-.1 0-.3.1-.3.3v1.6c0 .2.1.3.3.3z"/><path d="m63.1 31.5c0-.6-.5-1.1-1.1-1.1s-1.1.5-1.1 1.1v.7h-7.9c-.1 0-.2.1-.2.2v1.6c0 .1.1.2.2.2h15.4c.1 0 .2.1.2.2v2.6c0 .1-.1.2-.2.2h-9c-.1 0-.2.1-.2.2v1.6c0 .1.1.2.2.2h11.1c.1 0 .2-.1.2-.2v-6.9c0-.1-.1-.2-.2-.2h-7.5v-.4z"/><path d="m175 16.2c-1.8 0-3.4 1.5-3.4 3.4v1c0 1.8 1.5 3.4 3.4 3.4h7.9c1.8 0 3.4-1.5 3.4-3.4v-1c0-1.8-1.5-3.4-3.4-3.4zm9.2 3.4v1c0 .7-.5 1.3-1.2 1.3h-8c-.7 0-1.3-.6-1.3-1.3v-1c0-.7.6-1.3 1.3-1.3h7.9c.7.1 1.3.6 1.3 1.3z"/><path d="m186.6 12.9h-15.2c-.1 0-.2.1-.2.2v1.6c0 .1.1.2.2.2h15.2c.1 0 .2-.1.2-.2v-1.6c0-.1-.1-.2-.2-.2z"/><path d="m183.9 32.4h-1.1c-.2 0-.3-.1-.3-.3v-2.9c0-.1-.1-.2-.2-.2h-1.6c-.1 0-.2.1-.2.2v3c0 .1-.1.2-.2.2h-2.3c-.1 0-.2-.1-.2-.2v-3c0-.1-.1-.2-.2-.2h-1.6c-.1 0-.2.1-.2.2v2.9c0 .2-.1.3-.3.3h-1.5c-.2 0-.3.1-.3.3v1.6c0 .1.1.2.2.2h3.7c.1 0 .2.1.2.2v4.4c0 .1.1.2.2.2h1.6c.1 0 .2-.1.2-.2v-4.4c0-.1.1-.2.2-.2h3.7c.1 0 .2-.1.2-.2v-1.6c.3-.1.2-.3 0-.3z"/><path d="m182.9 25.4h-7.8c-2.2 0-3.9 1.8-3.9 3.9v9.9c0 .1.1.2.2.2h1.6c.2 0 .3-.1.3-.3v-9.8c0-1 .8-1.8 1.8-1.8h7.8c1 0 1.8.8 1.8 1.8v6.1c0 1-.8 1.8-1.8 1.8h-1.1c-.1 0-.2.1-.2.2v1.7c0 .1.1.2.2.2h1.1c2.2 0 3.9-1.7 3.9-3.9v-6.2c0-2-1.7-3.8-3.9-3.8z"/><path d="m198.8 33.9h-1.6c-.1 0-.2.1-.2.2v1.9c0 .7-.6 1.3-1.4 1.3h-.8c-.2 0-.3-.1-.3-.3v-6.1c0-.1.1-.2.2-.2h-.2 1c1.9 0 3.5-1.5 3.5-3.4v-7.5c0-1.8-1.6-3.3-3.5-3.3h-1 .2c-.1 0-.2-.1-.2-.2v-3.1c0-.1-.1-.2-.2-.2h-1.6c-.1 0-.2.1-.2.2v3.3-.2c0 .1-.1.2-.2.2h-.7c-1.9 0-3.5 1.5-3.5 3.3v7.5c0 1.8 1.6 3.4 3.5 3.4h.7c.1 0 .2.1.2.2v6.1c0 .1-.1.2-.2.2h-4.1c-.1 0-.2.1-.2.2v1.6c0 .1.1.2.2.2h7.6c1.9 0 3.5-1.5 3.5-3.4v-1.9c-.3.1-.4 0-.5 0zm-8.9-6.6v-7.5c0-.7.6-1.2 1.4-1.2h.7c.1 0 .2.1.2.2v-.2 10h-1c-.7 0-1.3-.6-1.3-1.3zm5.4-8.7c.8 0 1.4.5 1.4 1.2v7.5c0 .7-.6 1.3-1.4 1.3h-1v-10z"/><path d="m192 28.6h.2v-.2c0 .1-.1.2-.2.2z"/><path d="m194.3 28.3v.2h.2c-.1.1-.2 0-.2-.2z"/><path d="m194.6 18.6h-.2v.2c-.1-.1 0-.2.2-.2z"/></g></svg>